<?xml version="1.0" encoding="UTF-8"?>
<svg xmlns="http://www.w3.org/2000/svg" viewBox="0 0 1200 630">
  <defs>
    <linearGradient id="bg" x1="0" x2="1" y1="0" y2="1">
      <stop offset="0" stop-color="#0b1020" />
      <stop offset="1" stop-color="#121a33" />
    </linearGradient>
  </defs>
  <rect width="1200" height="630" fill="url(#bg)" />

  <!-- Taxi mark -->
  <g transform="translate(120,120) scale(3)">
    <defs>
      <linearGradient id="g" x1="0" x2="0" y1="0" y2="1">
        <stop offset="0" stop-color="#fde047"/>
        <stop offset="1" stop-color="#facc15"/>
      </linearGradient>
    </defs>
    <path d="M18 26h12l2-4h10c2.2 0 4 1.8 4 4v2h2c3.3 0 6 2.7 6 6v7H6v-7c0-3.3 2.7-6 6-6h4v-1c0-0.6 0.4-1 1-1z" fill="url(#g)"/>
    <rect x="23" y="26" width="16" height="6" rx="1.5" fill="#c7e4ff"/>
    <rect x="28" y="22" width="8" height="3" rx="1" fill="#111827"/>
    <g fill="#111827">
      <rect x="20" y="36" width="3" height="3"/>
      <rect x="25" y="36" width="3" height="3"/>
      <rect x="30" y="36" width="3" height="3"/>
      <rect x="35" y="36" width="3" height="3"/>
      <rect x="40" y="36" width="3" height="3"/>
    </g>
    <circle cx="18" cy="45" r="5" fill="#111827"/>
    <circle cx="46" cy="45" r="5" fill="#111827"/>
    <circle cx="18" cy="45" r="2" fill="#9ca3af"/>
    <circle cx="46" cy="45" r="2" fill="#9ca3af"/>
  </g>

  <!-- Title and tagline -->
  <text x="420" y="250" fill="#ffffff" font-family="ui-sans-serif, system-ui, -apple-system, Segoe UI, Roboto" font-weight="700" font-size="64">Streetwise Score</text>
  <text x="420" y="310" fill="#cbd5e1" font-family="ui-sans-serif, system-ui, -apple-system, Segoe UI, Roboto" font-size="30">Intelligent StreetEasy property analysis</text>

  <!-- Pills -->
  <g fill="#a3e635" opacity="0.85">
    <rect x="420" y="360" rx="18" width="200" height="40" />
    <rect x="630" y="360" rx="18" width="200" height="40" fill="#60a5fa"/>
    <rect x="840" y="360" rx="18" width="200" height="40" fill="#fbbf24"/>
  </g>
  <text x="440" y="387" fill="#0b1020" font-family="ui-sans-serif, system-ui" font-weight="700" font-size="20">Price & Location</text>
  <text x="650" y="387" fill="#0b1020" font-family="ui-sans-serif, system-ui" font-weight="700" font-size="20">Schools</text>
  <text x="865" y="387" fill="#0b1020" font-family="ui-sans-serif, system-ui" font-weight="700" font-size="20">Amenities</text>

  <!-- Border glow -->
  <rect x="40" y="40" width="1120" height="550" rx="20" fill="none" stroke="#7c3aed" stroke-opacity="0.4" stroke-width="2"/>
</svg>

